# xmcd CD database file
#
# Track frame offsets:
#	150
#	12834
#	27281
#	38399
#	67500
#	90055
#	104107
#	118692
#	138144
#	152607
#	163156
#	181082
#	191960
#	202686
#	226291
#	249906
#	263882
#	285270
#
# Disc length: 4118 seconds
#
# Revision: 0
# Processed by: cddbd v1.5.2PL0 Copyright (c) Steve Scherf et al.
# Submitted via: CDex 1.51
#
DISCID=d4101412
DTITLE=Louis Armstrong - Cd1
DYEAR=1900
DGENRE=Rhythmic Soul
TTITLE0=Cabaret
TTITLE1=Down By Riversise
TTITLE2=Hello Dolly
TTITLE3=You Go To My Head
TTITLE4=Summertime
TTITLE5=Bye 'n' Bye
TTITLE6=When The Saints Go Marchin' In
TTITLE7=I get a Kick Out of You
TTITLE8=Bucket's Got a Hole in It
TTITLE9=What a Wonderful World
TTITLE10=Makin' Whoopee
TTITLE11=Mame
TTITLE12=Let's Sing Like a Dixieland Band
TTITLE13=Sweet Lorraine
TTITLE14=Blues in the Night
TTITLE15=C'est Si Bon
TTITLE16=Body and Soul
TTITLE17=Stompin' at the Savoy
EXTD=
EXTT0=
EXTT1=
EXTT2=
EXTT3=
EXTT4=
EXTT5=
EXTT6=
EXTT7=
EXTT8=
EXTT9=
EXTT10=
EXTT11=
EXTT12=
EXTT13=
EXTT14=
EXTT15=
EXTT16=
EXTT17=
PLAYORDER=
